<?xml version="1.0" encoding="utf-8"?>
<!-- Generator: Adobe Illustrator 17.0.0, SVG Export Plug-In . SVG Version: 6.00 Build 0)  -->
<!DOCTYPE svg PUBLIC "-//W3C//DTD SVG 1.1//EN" "http://www.w3.org/Graphics/SVG/1.1/DTD/svg11.dtd">
<svg version="1.1" id="Layer_1" xmlns="http://www.w3.org/2000/svg" xmlns:xlink="http://www.w3.org/1999/xlink" x="0px" y="0px"
	 width="40px" height="40px" viewBox="0 0 40 40" enable-background="new 0 0 40 40" xml:space="preserve">
<g>
	<g>
		<g>
			<path fill="#F8F8F8" d="M20,12.06c2.586,0,2.892,0.01,3.914,0.056c0.944,0.043,1.457,0.201,1.799,0.333
				c0.452,0.176,0.775,0.386,1.114,0.724c0.339,0.339,0.549,0.662,0.725,1.114c0.133,0.341,0.29,0.854,0.333,1.799
				c0.047,1.021,0.056,1.328,0.056,3.914c0,2.586-0.01,2.892-0.056,3.914c-0.043,0.944-0.201,1.457-0.333,1.798
				c-0.176,0.452-0.386,0.775-0.725,1.114c-0.339,0.339-0.662,0.549-1.114,0.725c-0.341,0.133-0.854,0.29-1.799,0.333
				c-1.021,0.047-1.327,0.056-3.914,0.056c-2.586,0-2.893-0.01-3.914-0.056c-0.944-0.043-1.457-0.201-1.799-0.333
				c-0.452-0.176-0.775-0.386-1.114-0.725c-0.339-0.339-0.549-0.662-0.724-1.114c-0.133-0.341-0.29-0.854-0.333-1.798
				c-0.047-1.021-0.057-1.328-0.057-3.914c0-2.586,0.01-2.892,0.057-3.914c0.043-0.944,0.201-1.457,0.333-1.799
				c0.176-0.452,0.386-0.775,0.724-1.114c0.339-0.339,0.662-0.549,1.114-0.725c0.341-0.133,0.854-0.29,1.799-0.333
				C17.108,12.069,17.414,12.06,20,12.06 M20,10.314c-2.631,0-2.96,0.011-3.993,0.058c-1.031,0.047-1.735,0.211-2.351,0.45
				c-0.637,0.248-1.177,0.579-1.716,1.117c-0.538,0.539-0.87,1.079-1.117,1.716c-0.239,0.616-0.403,1.32-0.45,2.351
				C10.325,17.04,10.314,17.37,10.314,20c0,2.631,0.011,2.96,0.058,3.993c0.047,1.031,0.211,1.735,0.45,2.351
				c0.248,0.637,0.579,1.177,1.117,1.715c0.539,0.538,1.079,0.87,1.716,1.117c0.616,0.239,1.32,0.403,2.351,0.45
				c1.033,0.047,1.363,0.058,3.993,0.058s2.96-0.011,3.993-0.058c1.031-0.047,1.735-0.211,2.351-0.45
				c0.637-0.247,1.177-0.579,1.715-1.117c0.538-0.538,0.87-1.079,1.117-1.715c0.24-0.616,0.403-1.32,0.45-2.351
				c0.047-1.033,0.058-1.363,0.058-3.993c0-2.63-0.011-2.96-0.058-3.993c-0.047-1.031-0.211-1.735-0.45-2.351
				c-0.247-0.637-0.579-1.177-1.117-1.716c-0.538-0.538-1.079-0.87-1.715-1.117c-0.616-0.24-1.32-0.403-2.351-0.45
				C22.96,10.325,22.631,10.314,20,10.314L20,10.314z"/>
			<path fill="#F8F8F8" d="M20,15.026c-2.747,0-4.974,2.227-4.974,4.974s2.227,4.974,4.974,4.974s4.974-2.227,4.974-4.974
				S22.747,15.026,20,15.026z M20,23.229c-1.783,0-3.229-1.445-3.229-3.229c0-1.783,1.445-3.229,3.229-3.229
				s3.229,1.445,3.229,3.229C23.229,21.783,21.783,23.229,20,23.229z"/>
			<circle fill="#F8F8F8" cx="25.17" cy="14.83" r="1.162"/>
		</g>
	</g>
	<g>
		<g>
			<circle fill="none" stroke="#F8F8F8" stroke-width="2.5" stroke-miterlimit="10" cx="20" cy="20" r="18.75"/>
		</g>
	</g>
</g>
</svg>
